<?xml version="1.0" encoding="UTF-8"?>
<svg id="Layer_1" data-name="Layer 1" xmlns="http://www.w3.org/2000/svg" viewBox="0 0 256 300">
  <defs>
    <style>
      .cls-1 {
        fill: #4ca9e3;
      }

      .cls-2 {
        fill: #1a3860;
      }

      .cls-3 {
        fill: #f7db60;
      }

      .cls-4 {
        fill: #1a3960;
      }

      .cls-5 {
        fill: #9e8726;
      }

      .cls-6 {
        fill: #4ca9e4;
      }

      .cls-7 {
        fill: #183760;
      }

      .cls-8 {
        fill: #193860;
      }
    </style>
  </defs>
  <path class="cls-2" d="M230.12,251.31c0,14.34-11.94,26.64-26.15,26.64H52c-14.17,0-26.13-12.36-26.14-26.45l-.05-202.39c0-14.68,11.97-27,26.7-27.01l114.38-.06c1.81,0,3.16.65,4.34,1.87l56.55,58.22c1.45,1.49,2.4,2.7,2.4,5.02l-.07,164.15ZM219.43,91.99l-41.41-.03c-9.19-.18-16.16-7.26-16.14-16.45l-.04-42.72-108.77.04c-9.12,0-16.47,7.12-16.47,16.31v201.79c0,9.17,7.36,16.32,16.47,16.32h149.84c9.14,0,16.46-7.14,16.46-16.32l.06-158.96ZM178.73,81.21l33.08-.1-39.12-40.24-.07,35.03c.3,3.22,2.59,5.46,6.11,5.31Z"/>
  <path class="cls-5" d="M178.73,81.21c-3.52.15-5.81-2.09-6.11-5.31l.07-35.03,39.12,40.24-33.08.1Z"/>
  <path class="cls-3" d="M219.43,91.99l-.06,158.96c0,9.18-7.32,16.32-16.46,16.32H53.07c-9.12,0-16.47-7.15-16.47-16.32V49.15c0-9.19,7.35-16.31,16.47-16.31l108.77-.04.04,42.72c-.02,9.18,6.95,16.27,16.14,16.45l41.41.03ZM132.4,96.26c0-14.8-12-26.8-26.8-26.8s-26.8,12-26.8,26.8,12,26.8,26.8,26.8,26.8-12,26.8-26.8ZM142.7,174.76c3.58,0,5.7-2.81,5.71-5.7v-6.5c.05-20.67-16.76-37.21-37.42-37.23h-10.51c-19.55-.03-35.91,14.67-37.42,34.21l-.06,10.03c-.02,2.93,2.43,5.21,5.55,5.21l74.15-.02ZM138.7,209.21c3.51-.39,5.34-2.98,5.12-5.8-.2-2.62-2.3-4.93-5.38-4.93h-73.9c-3.26,0-5.38,2.56-5.4,5.33s2.15,5.37,5.4,5.37l74.16.02ZM188.16,238.23c3.74,0,5.57-3.09,5.34-5.88s-2.41-4.84-5.61-4.84h-123.3c-3.32.01-5.4,2.57-5.44,5.31s2.11,5.42,5.44,5.42h123.58Z"/>
  <path class="cls-7" d="M188.16,238.23h-123.58c-3.33,0-5.48-2.61-5.44-5.41s2.12-5.3,5.44-5.3h123.3c3.19-.01,5.39,2.18,5.61,4.83.23,2.79-1.6,5.88-5.34,5.88Z"/>
  <path class="cls-7" d="M138.7,209.21l-74.16-.02c-3.26,0-5.42-2.57-5.4-5.37s2.14-5.33,5.4-5.33h73.9c3.08,0,5.18,2.31,5.38,4.93.22,2.82-1.61,5.42-5.12,5.8Z"/>
  <path class="cls-8" d="M142.7,174.76l-74.15.02c-3.12,0-5.57-2.28-5.55-5.21l.06-10.03c1.51-19.54,17.86-34.24,37.42-34.22h10.51c20.65.03,37.47,16.57,37.43,37.24v6.5c-.02,2.89-2.14,5.7-5.72,5.7ZM137.68,164.02c.62-15.59-11.78-27.71-26.67-27.98l-10.04.02c-15.44-.33-27.98,12.41-27.28,27.99l63.99-.04Z"/>
  <path class="cls-6" d="M137.68,164.02l-63.99.04c-.7-15.59,11.84-28.32,27.28-27.99l10.04-.02c14.89.27,27.29,12.39,26.67,27.98Z"/>
  <path class="cls-4" d="M132.4,96.26c0,14.8-12,26.8-26.8,26.8s-26.8-12-26.8-26.8,12-26.8,26.8-26.8,26.8,12,26.8,26.8ZM121.64,96.25c0-8.84-7.17-16.01-16.01-16.01s-16.01,7.17-16.01,16.01,7.17,16.01,16.01,16.01,16.01-7.17,16.01-16.01Z"/>
  <circle class="cls-1" cx="105.63" cy="96.25" r="16.01"/>
</svg>